<?xml version="1.0" standalone="no"?>
<!DOCTYPE svg PUBLIC "-//W3C//DTD SVG 20010904//EN"
 "http://www.w3.org/TR/2001/REC-SVG-20010904/DTD/svg10.dtd">
<svg version="1.0" xmlns="http://www.w3.org/2000/svg"
 width="920.000000pt" height="512.000000pt" viewBox="0 0 920.000000 512.000000"
 preserveAspectRatio="xMidYMid meet">

<g transform="translate(0.000000,512.000000) scale(0.100000,-0.100000)"
fill="#000000" stroke="none">
<path d="M2113 4494 c-18 -9 -42 -31 -53 -49 -20 -32 -20 -48 -20 -1881 0
-1772 1 -1851 18 -1883 10 -19 34 -43 53 -53 32 -17 81 -18 932 -18 996 0 945
-3 987 65 19 30 20 49 20 313 l0 280 -188 4 -188 3 -66 33 c-73 36 -119 82
-158 159 l-25 48 -5 555 -5 555 -522 3 -523 2 -35 35 c-30 31 -35 42 -35 85 0
60 33 104 88 120 23 6 226 10 535 10 l497 0 0 160 0 160 -512 0 c-491 0 -514
1 -545 20 -44 26 -65 63 -65 110 1 45 18 74 59 101 26 18 59 19 546 19 l517 0
0 149 c0 82 3 156 6 165 6 14 -44 16 -517 16 -490 0 -526 1 -552 18 -43 29
-56 53 -57 103 0 32 6 54 21 73 46 59 20 57 742 56 364 0 735 -1 825 0 l162 0
0 191 c0 175 -2 195 -20 224 -42 68 9 65 -987 65 -802 0 -901 -2 -930 -16z
m1034 -2790 c44 -26 93 -106 93 -153 0 -145 -146 -241 -276 -182 -72 33 -123
126 -109 199 26 143 166 208 292 136z"/>
<path d="M3730 3773 c-8 -3 -25 -15 -37 -26 l-23 -20 0 -1076 c1 -1139 -1
-1094 47 -1119 16 -9 444 -12 1702 -12 l1680 0 28 24 28 24 3 1064 c2 803 -1
1070 -10 1092 -24 59 72 56 -1740 55 -915 0 -1670 -3 -1678 -6z"/>
<path d="M5010 1071 l0 -199 -182 -4 c-158 -3 -187 -6 -214 -22 -88 -53 -83
-176 9 -219 32 -15 106 -17 794 -17 715 0 760 1 792 18 38 20 71 73 71 112 0
33 -32 84 -67 107 -24 16 -51 18 -210 18 l-183 0 0 203 0 202 -405 0 -405 0 0
-199z"/>
</g>
</svg>
